# xmcd CD database file
#
# Track frame offsets:
#	150
#	35978
#	85205
#	116598
#	148218
#	171138
#	192480
#	202435
#	213205
#	227848
#	241198
#	251023
#	262293
#
# Disc length: 3692 seconds
#
# Revision: 2
# Processed by: cddbd v1.5.2PL0 Copyright (c) Steve Scherf et al.
# Submitted via: CDex 1.51
#
DISCID=d00e6a0d
DTITLE=Dinah Washington - Vol. 146 - Dinah Washington - 1954
DYEAR=1954
DGENRE=Jazz
TTITLE0=A Foggy Day
TTITLE1=Blue Skies
TTITLE2=Bye Bye Blues
TTITLE3=I Let a Song Out of My Heart
TTITLE4=Darn That Dream
TTITLE5=Crazy He Calls Me
TTITLE6=There is No Greater Love
TTITLE7=Come Rain or Come Shine
TTITLE8=No Nore
TTITLE9=You Can't Love Two (No,no,no)
TTITLE10=Love for Sale
TTITLE11=Our Love is Here to Stay
TTITLE12=Raindrops
EXTD=YEAR: 1954
EXTT0=
EXTT1=
EXTT2=
EXTT3=
EXTT4=
EXTT5=
EXTT6=
EXTT7=
EXTT8=
EXTT9=
EXTT10=
EXTT11=
EXTT12=
PLAYORDER=
